<svg id="visual" viewBox="0 0 960 540" width="960" height="540" xmlns="http://www.w3.org/2000/svg" xmlns:xlink="http://www.w3.org/1999/xlink" version="1.1"><rect x="0" y="0" width="960" height="540" fill="#001220"></rect><defs><linearGradient id="grad1_0" x1="43.8%" y1="0%" x2="100%" y2="100%"><stop offset="14.444444444444446%" stop-color="#001220" stop-opacity="1"></stop><stop offset="85.55555555555554%" stop-color="#001220" stop-opacity="1"></stop></linearGradient></defs><defs><linearGradient id="grad2_0" x1="0%" y1="0%" x2="56.3%" y2="100%"><stop offset="14.444444444444446%" stop-color="#001220" stop-opacity="1"></stop><stop offset="85.55555555555554%" stop-color="#001220" stop-opacity="1"></stop></linearGradient></defs><g transform="translate(960, 0)"><path d="M0 405C-55.9 400.6 -111.8 396.1 -153.5 370.5C-195.1 344.8 -222.6 297.9 -260.9 260.9C-299.2 223.9 -348.4 196.8 -374.2 155C-400 113.1 -402.5 56.6 -405 0L0 0Z" fill="#FBAE3C"></path></g><g transform="translate(0, 540)"><path d="M0 -405C57.9 -405.2 115.9 -405.5 155 -374.2C194.1 -342.8 214.4 -280 234.8 -234.8C255.1 -189.6 275.6 -162.1 304 -125.9C332.3 -89.7 368.7 -44.9 405 0L0 0Z" fill="#FBAE3C"></path></g></svg>